<svg xmlns="http://www.w3.org/2000/svg" width="28" height="28" viewBox="0 0 28 28" fill="none"><g clip-path="url(#clip0_283_149)"><path d="M15.8323 14.017L23.6199 6.2292C24.1267 5.72263 24.1267 4.90358 23.6199 4.39701C23.1134 3.89045 22.2943 3.89045 21.7878 4.39701L13.9999 12.1849L6.21229 4.39701C5.70548 3.89045 4.88667 3.89045 4.3801 4.39701C3.8733 4.90358 3.8733 5.72263 4.3801 6.2292L12.1677 14.017L4.3801 21.8049C3.8733 22.3114 3.8733 23.1305 4.3801 23.6371C4.63256 23.8898 4.96449 24.0167 5.2962 24.0167C5.6279 24.0167 5.9596 23.8898 6.21229 23.6371L13.9999 15.8492L21.7878 23.6371C22.0404 23.8898 22.3721 24.0167 22.7038 24.0167C23.0355 24.0167 23.3672 23.8898 23.6199 23.6371C24.1267 23.1305 24.1267 22.3114 23.6199 21.8049L15.8323 14.017Z" fill="#11183C"></path></g><defs><clipPath id="clip0_283_149"><rect width="20" height="20" fill="white" transform="translate(4 4)"></rect></clipPath></defs></svg>