<svg xmlns="http://www.w3.org/2000/svg" width="17" height="24" viewBox="0 0 17 24" fill="none"><path d="M11.4199 15.6463L8.76827 12.9947C8.58518 12.8117 8.28846 12.8117 8.10532 12.9947L5.45369 15.6463C5.27064 15.8293 5.27064 16.1262 5.45369 16.3092L8.10532 18.9609C8.19686 19.0524 8.31682 19.0982 8.43677 19.0982C8.55672 19.0982 8.67668 19.0524 8.76822 18.9609L11.4198 16.3092C11.6029 16.1262 11.6029 15.8294 11.4199 15.6463ZM8.43677 17.9665L6.44805 15.9777L8.43677 13.9891L10.4255 15.9778L8.43677 17.9665Z" fill="#666666"></path><path d="M8.43682 11.143C8.55682 11.143 8.67672 11.0972 8.76827 11.0057L11.4199 8.35405C11.6029 8.171 11.6029 7.87419 11.4199 7.6911L8.76827 5.03947C8.58518 4.85647 8.28846 4.85647 8.10532 5.03947L5.45369 7.6911C5.27064 7.87414 5.27064 8.17096 5.45369 8.35405L8.10532 11.0057C8.19691 11.0972 8.31682 11.143 8.43682 11.143ZM8.43682 6.03388L10.4255 8.0226L8.43682 10.0113L6.4481 8.02255L8.43682 6.03388Z" fill="#666666"></path><path d="M15.7627 4.78734C15.7627 4.78734 12.4153 1.44141 12.3807 1.40859C11.4371 0.514875 10.1476 0 8.83969 0H8.03531C6.7283 0 5.44336 0.510984 4.49391 1.40906C4.45969 1.44141 1.11286 4.78683 1.1123 4.78734C0.40575 5.49394 0 6.47344 0 7.47234V16.9111C0 17.1806 0.028547 17.4506 0.0857813 17.7136C0.108234 17.8191 0.328125 18.1406 0.643031 18.0727C0.984141 17.9991 1.02839 17.6377 1.00219 17.5154C0.959062 17.3175 0.9375 17.1141 0.9375 16.9111C0.9375 16.2136 0.937547 15.5162 0.938016 14.8188C1.13527 15.0778 1.49414 15.2535 1.76447 14.9832L4.41619 12.3315C4.59923 12.1485 4.59923 11.8516 4.41619 11.6685L1.76447 9.01683C1.58137 8.83383 1.28466 8.83383 1.10152 9.01683L0.9375 9.1808V7.47234C0.9375 6.70823 1.23516 5.99016 1.77516 5.45011L4.81617 2.41205L6.44892 4.0448C6.44892 4.0448 2.81147 7.68225 2.80256 7.69116C2.62111 7.87261 2.62153 8.17312 2.80256 8.35411L6.44888 12C6.44888 12 2.80341 15.645 2.80261 15.6458C2.62861 15.8198 2.61834 16.1245 2.80256 16.3088L6.44897 19.9552L4.74511 21.659C4.74511 21.659 3.46472 20.4854 3.46359 20.4844C3.27511 20.3116 2.97412 20.3245 2.80125 20.5129C2.62809 20.7016 2.64169 21.0024 2.82984 21.1753C3.93844 22.1916 4.98558 23.3567 6.47367 23.7934C6.94195 23.9309 7.42922 24 7.91719 24H8.95781C10.2329 24 11.4947 23.5099 12.4361 22.6498C12.4361 22.6498 15.6433 19.7102 15.6441 19.7095C16.4214 18.997 16.875 17.9648 16.875 16.911C16.875 16.911 16.875 7.47591 16.875 7.47234C16.875 6.14062 16.4062 5.53125 15.7627 4.78734ZM1.43297 10.0112L3.42178 12L1.43297 13.9888L0.9375 13.4933V10.5067L1.43297 10.0112ZM8.03531 0.9375H8.83969C9.06272 0.9375 9.28416 0.955875 9.50302 0.99075L8.4375 2.05627L7.37198 0.99075C7.59084 0.955875 7.81228 0.9375 8.03531 0.9375ZM8.95781 23.0625H7.91719C7.72903 23.0625 7.54195 23.0493 7.35675 23.0244L8.4375 21.9437L9.5183 23.0245C9.333 23.0493 9.14597 23.0625 8.95781 23.0625ZM10.5641 22.7445L8.76895 20.9493C8.58586 20.7663 8.28914 20.7663 8.106 20.9493L6.31097 22.7444C6.00848 22.6199 5.72372 22.4617 5.45869 22.2713L7.44333 20.2866C7.62638 20.1036 7.62638 19.8067 7.44333 19.6237L3.79697 15.9773C3.79697 15.9773 7.43466 12.3401 7.44328 12.3315C7.62473 12.15 7.62408 11.8492 7.44328 11.6685L3.79697 8.02266L7.44333 4.3763C7.62638 4.19325 7.62638 3.89644 7.44333 3.71334L5.50898 1.779C5.76848 1.5848 6.04833 1.42153 6.34683 1.29145C6.34683 1.29145 8.10548 3.05011 8.10605 3.05067C8.28038 3.225 8.58342 3.23611 8.769 3.05067L10.5281 1.2915C10.8265 1.42158 11.1064 1.58484 11.366 1.77905L9.43167 3.71339C9.24863 3.89644 9.24863 4.19325 9.43167 4.37634L13.078 8.0227C13.078 8.0227 9.43397 11.6663 9.43172 11.6685C9.25055 11.8497 9.2505 12.1503 9.43172 12.3315L13.078 15.9773L9.43167 19.6237C9.24863 19.8068 9.24863 20.1036 9.43167 20.2867L11.4163 22.2713C11.1515 22.4617 10.8666 22.6199 10.5641 22.7445ZM15.9375 13.4933L15.442 13.9888L13.4532 12L15.442 10.0112L15.9375 10.5067V13.4933ZM15.9375 9.1808L15.7735 9.01678C15.5904 8.83378 15.2937 8.83378 15.1105 9.01678L12.4588 11.6685C12.2758 11.8515 12.2758 12.1484 12.4588 12.3315L15.1105 14.9832C15.2918 15.1644 15.5928 15.1638 15.7735 14.9832L15.9375 14.8192V16.911C15.9375 17.7108 15.5995 18.4785 15.0107 19.0185L12.1299 21.659L10.426 19.9551C10.426 19.9551 14.067 16.3142 14.0724 16.3088C14.2537 16.1274 14.2537 15.8272 14.0723 15.6458L10.4261 12C10.4261 12 14.0709 8.35561 14.0724 8.35416C14.2537 8.17284 14.2537 7.87261 14.0724 7.6912L10.4261 4.04484L12.0588 2.41209L15.0998 5.45016C15.6398 5.99062 15.9375 6.70875 15.9375 7.47234V9.1808Z" fill="#666666"></path><path d="M1.59375 19.875C1.85263 19.875 2.0625 19.6651 2.0625 19.4062C2.0625 19.1474 1.85263 18.9375 1.59375 18.9375C1.33487 18.9375 1.125 19.1474 1.125 19.4062C1.125 19.6651 1.33487 19.875 1.59375 19.875Z" fill="#616161"></path><path d="M8.4375 16.446C8.69638 16.446 8.90625 16.2362 8.90625 15.9773C8.90625 15.7184 8.69638 15.5085 8.4375 15.5085C8.17862 15.5085 7.96875 15.7184 7.96875 15.9773C7.96875 16.2362 8.17862 16.446 8.4375 16.446Z" fill="#666666"></path><path d="M8.4375 8.49133C8.69638 8.49133 8.90625 8.28147 8.90625 8.02258C8.90625 7.7637 8.69638 7.55383 8.4375 7.55383C8.17862 7.55383 7.96875 7.7637 7.96875 8.02258C7.96875 8.28147 8.17862 8.49133 8.4375 8.49133Z" fill="#666666"></path></svg>