<svg xmlns="http://www.w3.org/2000/svg" width="10" height="14" viewBox="0 0 10 14" fill="none"><path d="M8.88926 6.45372L2.65908 0.223657C2.51498 0.0794465 2.32263 0 2.11752 0C1.91242 0 1.72006 0.0794465 1.57597 0.223657L1.11716 0.682352C0.818607 0.981244 0.818607 1.46703 1.11716 1.76547L6.34879 6.9971L1.11135 12.2345C0.967256 12.3787 0.887695 12.571 0.887695 12.776C0.887695 12.9812 0.967256 13.1734 1.11135 13.3178L1.57016 13.7763C1.71437 13.9206 1.90661 14 2.11172 14C2.31682 14 2.50918 13.9206 2.65327 13.7763L8.88926 7.54059C9.0337 7.39592 9.11303 7.20277 9.11257 6.99744C9.11303 6.79131 9.0337 6.59827 8.88926 6.45372Z" fill="white"></path></svg>