<svg xmlns="http://www.w3.org/2000/svg" width="14" height="14" viewBox="0 0 14 14" fill="none"><path d="M10.8883 6.45372L4.6581 0.223657C4.51401 0.0794465 4.32165 0 4.11655 0C3.91144 0 3.71909 0.0794465 3.57499 0.223657L3.11618 0.682352C2.81763 0.981244 2.81763 1.46703 3.11618 1.76547L8.34781 6.9971L3.11038 12.2345C2.96628 12.3787 2.88672 12.571 2.88672 12.776C2.88672 12.9812 2.96628 13.1734 3.11038 13.3178L3.56918 13.7763C3.71339 13.9206 3.90564 14 4.11074 14C4.31585 14 4.5082 13.9206 4.6523 13.7763L10.8883 7.54059C11.0327 7.39592 11.1121 7.20277 11.1116 6.99744C11.1121 6.79131 11.0327 6.59827 10.8883 6.45372Z" fill="#BE9F6D"></path></svg>