<svg xmlns="http://www.w3.org/2000/svg" width="16" height="16" viewBox="0 0 16 16" fill="none"><path d="M13.6556 2.34441C10.53 -0.781222 5.4705 -0.781721 2.34443 2.34441C-0.781241 5.47005 -0.78171 10.5295 2.34443 13.6556C5.47 16.7812 10.5295 16.7817 13.6556 13.6556C16.7812 10.5299 16.7817 5.47052 13.6556 2.34441ZM13.3213 12.5155C12.9476 12.1813 12.5478 11.8856 12.1265 11.6307C12.405 10.6687 12.57 9.61011 12.609 8.50969H14.9605C14.8542 9.99295 14.2842 11.3843 13.3213 12.5155ZM1.03949 8.50969H3.39098C3.42998 9.61011 3.59497 10.6687 3.87346 11.6307C3.45212 11.8856 3.05238 12.1813 2.67868 12.5155C1.71572 11.3843 1.14584 9.99295 1.03949 8.50969ZM2.67872 3.48455C3.05241 3.81871 3.45215 4.11444 3.87349 4.36929C3.595 5.33129 3.43001 6.38989 3.39101 7.49031H1.03949C1.14584 6.00708 1.71572 4.61568 2.67872 3.48455ZM7.49032 4.47464C6.65906 4.41519 5.85756 4.21045 5.11451 3.8727C5.54666 2.75989 6.34332 1.4252 7.49032 1.09443V4.47464ZM7.49032 5.49593V7.49034H4.4108C4.44609 6.55947 4.57798 5.66561 4.79733 4.84775C5.64174 5.21688 6.54987 5.43733 7.49032 5.49593ZM7.49032 8.50969V10.5041C6.54987 10.5627 5.64174 10.7831 4.79733 11.1523C4.57798 10.3344 4.44609 9.44056 4.4108 8.50969H7.49032ZM7.49032 11.5254V14.9056C6.34338 14.5748 5.54672 13.2403 5.11451 12.1273C5.85756 11.7896 6.65906 11.5848 7.49032 11.5254ZM8.50968 11.5254C9.34094 11.5848 10.1424 11.7896 10.8855 12.1273C10.4533 13.2402 9.65668 14.5748 8.50968 14.9056V11.5254ZM8.50968 10.5041V8.50969H11.5892C11.5539 9.44056 11.422 10.3344 11.2027 11.1523C10.3583 10.7831 9.45013 10.5627 8.50968 10.5041ZM8.50968 7.49034V5.49593C9.45013 5.43733 10.3583 5.21688 11.2027 4.84775C11.422 5.66561 11.5539 6.55947 11.5892 7.49034H8.50968ZM8.50968 4.47464V1.09447C9.65668 1.42523 10.4533 2.75992 10.8855 3.87273C10.1424 4.21045 9.34094 4.41519 8.50968 4.47464ZM10.7991 1.60333C11.4515 1.88904 12.0602 2.27644 12.6058 2.75711C12.3461 2.98611 12.072 3.19375 11.7859 3.37944C11.5317 2.75021 11.2071 2.13871 10.7991 1.60333ZM4.21409 3.37944C3.92792 3.19375 3.65389 2.98611 3.39413 2.75711C3.93978 2.27644 4.54847 1.88904 5.20091 1.60333C4.79287 2.13877 4.46822 2.75027 4.21409 3.37944ZM4.21412 12.6206C4.46822 13.2498 4.79293 13.8613 5.20094 14.3967C4.5485 14.111 3.93981 13.7236 3.39416 13.2429C3.65389 13.0139 3.92795 12.8063 4.21412 12.6206ZM11.7859 12.6206C12.072 12.8063 12.3461 13.0139 12.6058 13.2429C12.0602 13.7236 11.4515 14.111 10.7991 14.3967C11.2071 13.8614 11.5317 13.2498 11.7859 12.6206ZM12.609 7.49034C12.57 6.38992 12.405 5.33129 12.1265 4.36932C12.5479 4.11447 12.9476 3.81874 13.3213 3.48458C14.2843 4.61568 14.8542 6.00708 14.9605 7.49034H12.609Z" fill="#009861"></path></svg>