<svg width="24" height="24" viewBox="0 0 24 24" fill="none" xmlns="http://www.w3.org/2000/svg">
<path d="M6.73897 21.95C5.60156 21.9503 4.48961 21.6133 3.54382 20.9815C2.59803 20.3496 1.86091 19.4515 1.42572 18.4006C0.99054 17.3498 0.876853 16.1934 1.09905 15.0779C1.32124 13.9624 1.86934 12.9379 2.67397 12.134L11.159 3.648C11.2997 3.5073 11.4905 3.42826 11.6895 3.42826C11.8884 3.42826 12.0793 3.5073 12.22 3.648C12.3607 3.78869 12.4397 3.97952 12.4397 4.1785C12.4397 4.37747 12.3607 4.5683 12.22 4.709L3.73397 13.194C3.32314 13.585 2.99471 14.0542 2.76804 14.5741C2.54136 15.0939 2.42103 15.6539 2.41412 16.221C2.40721 16.788 2.51387 17.3508 2.72782 17.876C2.94176 18.4012 3.25866 18.8783 3.65985 19.2792C4.06104 19.68 4.53839 19.9965 5.0638 20.21C5.5892 20.4236 6.15202 20.5297 6.7191 20.5224C7.28618 20.515 7.84605 20.3942 8.36572 20.1671C8.88539 19.94 9.35435 19.6112 9.74497 19.2L20.705 8.24C21.2072 7.72136 21.4854 7.02608 21.4797 6.30414C21.4739 5.58221 21.1845 4.89148 20.674 4.38098C20.1635 3.87048 19.4728 3.58111 18.7508 3.57532C18.0289 3.56952 17.3336 3.84776 16.815 4.35L7.97697 13.194C7.74252 13.4284 7.61081 13.7464 7.61081 14.078C7.61081 14.4096 7.74252 14.7275 7.97697 14.962C8.21142 15.1964 8.52941 15.3282 8.86097 15.3282C9.19254 15.3282 9.51052 15.1964 9.74497 14.962L15.4 9.306C15.4691 9.23433 15.5519 9.17716 15.6433 9.13781C15.7348 9.09846 15.8332 9.07772 15.9328 9.07681C16.0324 9.0759 16.1312 9.09483 16.2234 9.1325C16.3155 9.17016 16.3993 9.22581 16.4698 9.2962C16.5402 9.36659 16.5959 9.4503 16.6337 9.54245C16.6714 9.63461 16.6905 9.73336 16.6897 9.83294C16.6888 9.93253 16.6682 10.0309 16.6289 10.1225C16.5897 10.214 16.5326 10.2968 16.461 10.366L10.805 16.023C10.2893 16.5388 9.58975 16.8287 8.86032 16.8288C8.1309 16.8289 7.43132 16.5392 6.91547 16.0235C6.39962 15.5078 6.10977 14.8083 6.10968 14.0789C6.10959 13.3494 6.39926 12.6498 6.91497 12.134L15.755 3.3C16.5519 2.50289 17.6329 2.05503 18.7601 2.05493C19.8873 2.05484 20.9684 2.50252 21.7655 3.2995C22.5626 4.09647 23.0104 5.17746 23.0105 6.30464C23.0106 7.43183 22.5629 8.51289 21.766 9.31L10.806 20.266C10.273 20.8016 9.6392 21.2262 8.94111 21.5153C8.24302 21.8043 7.49454 21.9521 6.73897 21.95Z" fill="#666666"/>
</svg>
