<svg width="24" height="24" viewBox="0 0 24 24" fill="none" xmlns="http://www.w3.org/2000/svg">
<path d="M23.2337 21.8602L17.5217 15.9194C18.9903 14.1735 19.795 11.9768 19.795 9.68999C19.795 4.34701 15.448 0 10.105 0C4.76205 0 0.415039 4.34701 0.415039 9.68999C0.415039 15.033 4.76205 19.38 10.105 19.38C12.1109 19.38 14.0223 18.775 15.6566 17.6265L21.412 23.6124C21.6525 23.8622 21.9761 24 22.3228 24C22.651 24 22.9624 23.8749 23.1987 23.6474C23.7009 23.1641 23.7169 22.3628 23.2337 21.8602ZM10.105 2.52782C14.0543 2.52782 17.2672 5.74069 17.2672 9.68999C17.2672 13.6393 14.0543 16.8522 10.105 16.8522C6.15573 16.8522 2.94286 13.6393 2.94286 9.68999C2.94286 5.74069 6.15573 2.52782 10.105 2.52782Z" fill="#BE9F6D"/>
</svg>
