<svg width="14" height="10" viewBox="0 0 14 10" fill="none" xmlns="http://www.w3.org/2000/svg">
<path d="M7.54628 8.88926L13.7763 2.65908C13.9206 2.51498 14 2.32263 14 2.11752C14 1.91242 13.9206 1.72006 13.7763 1.57597L13.3176 1.11716C13.0188 0.818606 12.533 0.818606 12.2345 1.11716L7.0029 6.34879L1.76547 1.11135C1.62126 0.967255 1.42901 0.887695 1.22402 0.887695C1.0188 0.887695 0.826562 0.967255 0.682239 1.11135L0.223657 1.57016C0.0794468 1.71437 -4.45384e-08 1.90661 -5.35037e-08 2.11172C-6.24691e-08 2.31682 0.0794467 2.50918 0.223657 2.65327L6.45941 8.88926C6.60408 9.03369 6.79723 9.11303 7.00256 9.11257C7.20869 9.11303 7.40173 9.03369 7.54628 8.88926Z" fill="#009861"/>
</svg>
