<svg xmlns="http://www.w3.org/2000/svg" width="14" height="14" viewBox="0 0 14 14" fill="none"><g clip-path="url(#clip0_647_3165)"><path d="M7.54628 10.8893L13.7763 4.65908C13.9206 4.51498 14 4.32263 14 4.11752C14 3.91242 13.9206 3.72006 13.7763 3.57597L13.3176 3.11716C13.0188 2.81861 12.533 2.81861 12.2345 3.11716L7.0029 8.34879L1.76547 3.11135C1.62126 2.96726 1.42901 2.88769 1.22402 2.88769C1.0188 2.88769 0.826562 2.96726 0.682239 3.11135L0.223657 3.57016C0.0794468 3.71437 -4.45384e-08 3.90661 -5.35037e-08 4.11172C-6.24691e-08 4.31682 0.0794467 4.50918 0.223657 4.65327L6.45941 10.8893C6.60408 11.0337 6.79723 11.113 7.00256 11.1126C7.20869 11.113 7.40173 11.0337 7.54628 10.8893Z" fill="#333333"></path></g><defs><clipPath id="clip0_647_3165"><rect width="14" height="14" fill="white" transform="translate(14) rotate(90)"></rect></clipPath></defs></svg>